# xmcd CD database file
#
# Track frame offsets:
#	150
#	14395
#	29264
#	40946
#	56235
#	70393
#	82527
#	94738
#	110620
#	123656
#	134152
#	145144
#	157904
#	171426
#	186148
#	201002
#	214583
#	229204
#	242342
#	256486
#	269998
#	281651
#	297277
#
# Disc length: 4167 seconds
#
# Revision: 0
# Processed by: cddbd v1.5.2PL0 Copyright (c) Steve Scherf et al.
# Submitted via: CDex 1.51
#
DISCID=5f104517
DTITLE=Sarah Vaughan - The Complete Columbia Singles (1/3)
DYEAR=2019
DGENRE=Jazz
TTITLE0=Bianca
TTITLE1=Black Coffee
TTITLE2=As You Desire Me
TTITLE3=Tonight I Shall Sleep With a Smile On My Face
TTITLE4=While You're Gone
TTITLE5=Make Believe
TTITLE6=Give Me a Song With a Beautiful Melody
TTITLE7=That Lucky Old Sun
TTITLE8=Fool's Paradise
TTITLE9=Lonely Girl
TTITLE10=I Cried For You
TTITLE11=You Say You Care
TTITLE12=I'm Crazy to Love You
TTITLE13=Summertime
TTITLE14=You Taught Me to Love Again
TTITLE15=Just Friends
TTITLE16=Our Very Own
TTITLE17=Don't Be Afraid
TTITLE18=East of the Sun
TTITLE19=Ain't Misbehavin'
TTITLE20=Nice Work If You Can Get It
TTITLE21=Goodnight My Love
TTITLE22=Come Rain Or Come Shine
EXTD=YEAR: 2019
EXTT0=
EXTT1=
EXTT2=
EXTT3=
EXTT4=
EXTT5=
EXTT6=
EXTT7=
EXTT8=
EXTT9=
EXTT10=
EXTT11=
EXTT12=
EXTT13=
EXTT14=
EXTT15=
EXTT16=
EXTT17=
EXTT18=
EXTT19=
EXTT20=
EXTT21=
EXTT22=
PLAYORDER=
